<svg width="231" height="65" viewBox="0 0 231 65" fill="none" xmlns="http://www.w3.org/2000/svg">
<g clip-path="url(#clip0_129_3183)">
<path d="M150.415 5.64398H158.119C158.119 5.64398 159.623 5.46259 160.102 8.00902C160.58 10.5554 167.819 44.3775 167.819 44.3775C167.819 44.3775 168.554 50.1819 175.599 50.2726C182.651 50.3633 230.452 50.2726 230.452 50.2726L225.307 43.7496H210.102L231 18.6621V11.8879H200.873V15.7739C200.873 15.7739 201.816 18.8644 204.811 18.8644H221.508L200.949 43.7496H182.914C182.914 43.7496 177.402 43.9868 176.459 39.3125L175.28 33.529H192.92C192.92 33.529 196.386 33.0546 196.539 30.6756C196.692 28.2967 196.539 26.8735 196.539 26.8735H173.858L172.201 18.3133H196.934V11.8949L170.787 11.9717C170.787 11.9717 169.955 0.188365 163.499 0.0906944L147.732 0L150.408 5.64398H150.415Z" fill="#F7C371"/>
<path d="M184.599 65C187.965 65 190.694 62.2545 190.694 58.8677C190.694 55.4809 187.965 52.7354 184.599 52.7354C181.233 52.7354 178.504 55.4809 178.504 58.8677C178.504 62.2545 181.233 65 184.599 65Z" fill="#F7C371"/>
<path d="M211.807 65C215.173 65 217.902 62.2545 217.902 58.8677C217.902 55.4809 215.173 52.7354 211.807 52.7354C208.441 52.7354 205.712 55.4809 205.712 58.8677C205.712 62.2545 208.441 65 211.807 65Z" fill="#F7C371"/>
<path d="M7.98775 38.8939C8.82675 42.5985 11.4685 44.224 15.712 44.224C19.9555 44.224 21.7514 42.5426 21.7514 39.8427C21.7514 36.8428 19.9833 35.5382 13.7151 34.0732C3.73733 31.7081 1.26889 28.0594 1.26889 23.0782C1.26889 16.6459 6.04629 12.2856 14.7274 12.2856C24.4625 12.2856 28.3385 17.5528 28.8655 22.9457H20.8777C20.4964 20.6783 19.2483 18.2086 14.5194 18.2086C11.3021 18.2086 9.36065 19.5481 9.36065 22.1643C9.36065 24.7805 10.9138 25.7711 16.8422 27.1525C27.5064 29.678 29.8431 33.6685 29.8431 38.873C29.8431 45.6053 24.7815 50.2307 15.088 50.2307C5.39451 50.2307 0.880594 45.6193 0 38.8939H7.98775Z" fill="white"/>
<path d="M35.6953 12.8158H43.6206V27.2013H58.3689V12.8158H66.2942V49.7075H58.3689V33.7453H43.6206V49.7075H35.6953V12.8158Z" fill="white"/>
<path d="M108.798 31.1361C108.798 41.4055 102.669 50.2447 90.7636 50.2447C78.8583 50.2447 73.235 41.831 73.235 31.2616C73.235 20.6923 79.8845 12.2856 91.2767 12.2856C102.003 12.2856 108.798 19.8481 108.798 31.1361ZM81.4238 31.1012C81.4238 38.3009 84.5648 43.7496 91.0618 43.7496C98.1135 43.7496 100.61 37.8056 100.61 31.2337C100.61 24.2572 97.7668 18.7737 90.937 18.7737C84.1072 18.7737 81.4238 23.9224 81.4238 31.1012Z" fill="white"/>
<path d="M115.732 12.8158H130.897C138.69 12.8158 143.974 17.2249 143.974 24.2363C143.974 32.2523 137.941 35.9289 130.709 35.9289H123.658V49.7075H115.725V12.8158H115.732ZM123.671 29.5803H129.718C133.386 29.5803 135.979 28.1571 135.979 24.3898C135.979 20.6225 133.247 19.1644 129.884 19.1644H123.671V29.5803Z" fill="white"/>
</g>
<defs>
<clipPath id="clip0_129_3183">
<rect width="231" height="65" fill="white"/>
</clipPath>
</defs>
</svg>
