<svg width="26" height="24" viewBox="0 0 26 24" fill="currentColor" xmlns="http://www.w3.org/2000/svg">
<mask id="path-1-outside-1_289_933" maskUnits="userSpaceOnUse" x="0" y="0.125" width="26" height="24" fill="currentColor">
<rect fill="white" y="0.125" width="26" height="24"/>
<path d="M25.0452 9.79735C25.0012 9.72609 24.9287 9.68042 24.8486 9.67299L22.6633 9.47544L23.3578 7.26495C23.3832 7.18406 23.3723 7.09518 23.328 7.02392C23.284 6.95266 23.2115 6.90699 23.1315 6.89956L20.9462 6.70201L21.6407 4.49179C21.6661 4.4109 21.6552 4.32203 21.6109 4.25077C21.5669 4.17951 21.4944 4.13383 21.4144 4.12641L19.229 3.92913L19.9235 1.71864C19.9489 1.63775 19.938 1.54888 19.8938 1.47762C19.8497 1.40635 19.7772 1.36068 19.6972 1.35325L17.1804 1.12598C17.1216 1.12076 17.0634 1.13644 17.0144 1.17083L4.95194 9.60283H3.24697C3.18819 9.60283 3.13122 9.62374 3.08512 9.66253L1.09996 11.3222C1.03677 11.375 1 11.4556 1 11.5409C1 11.6262 1.03677 11.7068 1.09996 11.7597L2.82357 13.2006L1.09996 14.6415C1.03677 14.694 1 14.7747 1 14.86C1 14.9453 1.03677 15.0259 1.09996 15.0787L2.82357 16.5199L1.09996 17.9611C1.03677 18.0139 1 18.0945 1 18.1798C1 18.2651 1.03677 18.3457 1.09996 18.3986L2.82357 19.8395L1.09996 21.2807C1.03677 21.3335 1 21.4141 1 21.4994C1 21.5847 1.03677 21.6653 1.09996 21.7181L3.08512 23.3778C3.13122 23.4163 3.18819 23.4375 3.24697 23.4375H20.0243C20.0831 23.4375 20.14 23.4166 20.1861 23.3778L22.1713 21.7181C22.2345 21.6653 22.2712 21.5847 22.2712 21.4994C22.2712 21.4141 22.2345 21.3335 22.1713 21.2807L20.4477 19.8395L22.1713 18.3986C22.2345 18.3457 22.2712 18.2651 22.2712 18.1798C22.2712 18.0945 22.2345 18.0139 22.1713 17.9611L20.4477 16.5199L22.1713 15.0787C22.2345 15.0259 22.2712 14.9453 22.2712 14.86C22.2712 14.7747 22.2345 14.694 22.1713 14.6412L21.8354 14.3603L24.1704 12.7282C24.2194 12.6938 24.2564 12.6431 24.2748 12.5837L25.0747 10.0381C25.1001 9.95748 25.0892 9.86861 25.0452 9.79735ZM19.8624 16.3012C19.7992 16.354 19.7625 16.4346 19.7625 16.5199C19.7625 16.6052 19.7992 16.6858 19.8624 16.7386L21.586 18.1798L19.8624 19.6207C19.7992 19.6736 19.7625 19.7542 19.7625 19.8395C19.7625 19.9248 19.7992 20.0054 19.8624 20.0582L21.586 21.4994L19.9336 22.8809H3.3376L1.6852 21.4994L3.40882 20.0582C3.472 20.0054 3.50877 19.9248 3.50877 19.8395C3.50877 19.7542 3.472 19.6736 3.40882 19.6207L1.6852 18.1798L3.40882 16.7386C3.472 16.6858 3.50877 16.6052 3.50877 16.5199C3.50877 16.4346 3.472 16.354 3.40882 16.3012L1.6852 14.86L3.40882 13.419C3.472 13.3662 3.50877 13.2856 3.50877 13.2003C3.50877 13.115 3.472 13.0344 3.40882 12.9816L1.6852 11.5406L3.3376 10.1592H19.9336L21.586 11.5406L19.8624 12.9816C19.7992 13.0344 19.7625 13.115 19.7625 13.2003C19.7625 13.2856 19.7992 13.3662 19.8624 13.419L21.586 14.86L19.8624 16.3012ZM23.8069 12.3165L21.4014 13.9979L20.4477 13.2006L22.1713 11.7597C22.2345 11.7068 22.2712 11.6262 22.2712 11.5409C22.2712 11.4556 22.2345 11.375 22.1713 11.3222L20.1861 9.66253C20.14 9.62401 20.0828 9.60283 20.0243 9.60283H5.90464L17.2268 1.68892L19.3217 1.87822L18.6272 4.08871C18.6018 4.1696 18.6127 4.25847 18.657 4.32973C18.701 4.401 18.7735 4.44667 18.8535 4.4541L21.0389 4.65138L20.3443 6.86159C20.319 6.94248 20.3298 7.03135 20.3741 7.10261C20.4181 7.17388 20.4907 7.21955 20.5707 7.22698L22.756 7.42453L22.0615 9.63502C22.0361 9.71591 22.047 9.80478 22.0913 9.87604C22.1353 9.9473 22.2078 9.99298 22.2878 10.0004L24.4732 10.198L23.8069 12.3165ZM13.7881 16.9868C13.0011 16.9125 12.3048 17.5335 12.2354 18.3694C12.2017 18.7744 12.3185 19.169 12.5645 19.4807C12.8102 19.7924 13.1554 19.9836 13.5366 20.0191C13.5796 20.0233 13.6223 20.0252 13.6648 20.0252C14.0004 20.0252 14.3223 19.9014 14.5826 19.6697C14.8759 19.4086 15.0559 19.0418 15.0893 18.6368C15.123 18.2318 15.0062 17.8373 14.7602 17.5255C14.5147 17.2138 14.1693 17.0223 13.7881 16.9868ZM14.5678 18.5876C14.5466 18.8446 14.4324 19.0773 14.2462 19.243C14.0602 19.4086 13.8243 19.4873 13.5827 19.4647C13.3409 19.4422 13.1218 19.3208 12.9659 19.123C12.81 18.9252 12.7357 18.6748 12.7572 18.4181C12.7989 17.9162 13.1964 17.5371 13.662 17.5371C13.6886 17.5371 13.7153 17.5382 13.7425 17.5409C13.9844 17.5635 14.2034 17.6848 14.3593 17.8827C14.515 18.0802 14.5893 18.3306 14.5678 18.5876ZM13.6449 13.9591L10.0549 19.3998C10.0039 19.4771 9.92288 19.5184 9.84027 19.5184C9.78822 19.5184 9.73591 19.5021 9.69008 19.468C9.57173 19.3797 9.54299 19.2064 9.62611 19.0806L13.2163 13.64C13.2994 13.5142 13.4628 13.4837 13.5809 13.572C13.6992 13.6598 13.728 13.8334 13.6449 13.9591ZM11.0356 14.6701C11.105 13.834 10.5211 13.0941 9.73436 13.0204C8.94765 12.9469 8.25105 13.5671 8.18165 14.4029C8.11225 15.2391 8.6962 15.979 9.48291 16.0527C9.52538 16.0568 9.56759 16.0588 9.60954 16.0588C10.3432 16.0588 10.9698 15.4609 11.0356 14.6701ZM8.70319 14.4519C8.74488 13.9501 9.14238 13.5709 9.60799 13.5709C9.63466 13.5709 9.66133 13.572 9.68852 13.5748C10.1878 13.6215 10.5581 14.0909 10.5141 14.6214C10.4701 15.1519 10.0296 15.5453 9.52901 15.4986C9.02974 15.4518 8.65917 14.9821 8.70319 14.4519Z"/>
</mask>
<path d="M25.0452 9.79735C25.0012 9.72609 24.9287 9.68042 24.8486 9.67299L22.6633 9.47544L23.3578 7.26495C23.3832 7.18406 23.3723 7.09518 23.328 7.02392C23.284 6.95266 23.2115 6.90699 23.1315 6.89956L20.9462 6.70201L21.6407 4.49179C21.6661 4.4109 21.6552 4.32203 21.6109 4.25077C21.5669 4.17951 21.4944 4.13383 21.4144 4.12641L19.229 3.92913L19.9235 1.71864C19.9489 1.63775 19.938 1.54888 19.8938 1.47762C19.8497 1.40635 19.7772 1.36068 19.6972 1.35325L17.1804 1.12598C17.1216 1.12076 17.0634 1.13644 17.0144 1.17083L4.95194 9.60283H3.24697C3.18819 9.60283 3.13122 9.62374 3.08512 9.66253L1.09996 11.3222C1.03677 11.375 1 11.4556 1 11.5409C1 11.6262 1.03677 11.7068 1.09996 11.7597L2.82357 13.2006L1.09996 14.6415C1.03677 14.694 1 14.7747 1 14.86C1 14.9453 1.03677 15.0259 1.09996 15.0787L2.82357 16.5199L1.09996 17.9611C1.03677 18.0139 1 18.0945 1 18.1798C1 18.2651 1.03677 18.3457 1.09996 18.3986L2.82357 19.8395L1.09996 21.2807C1.03677 21.3335 1 21.4141 1 21.4994C1 21.5847 1.03677 21.6653 1.09996 21.7181L3.08512 23.3778C3.13122 23.4163 3.18819 23.4375 3.24697 23.4375H20.0243C20.0831 23.4375 20.14 23.4166 20.1861 23.3778L22.1713 21.7181C22.2345 21.6653 22.2712 21.5847 22.2712 21.4994C22.2712 21.4141 22.2345 21.3335 22.1713 21.2807L20.4477 19.8395L22.1713 18.3986C22.2345 18.3457 22.2712 18.2651 22.2712 18.1798C22.2712 18.0945 22.2345 18.0139 22.1713 17.9611L20.4477 16.5199L22.1713 15.0787C22.2345 15.0259 22.2712 14.9453 22.2712 14.86C22.2712 14.7747 22.2345 14.694 22.1713 14.6412L21.8354 14.3603L24.1704 12.7282C24.2194 12.6938 24.2564 12.6431 24.2748 12.5837L25.0747 10.0381C25.1001 9.95748 25.0892 9.86861 25.0452 9.79735ZM19.8624 16.3012C19.7992 16.354 19.7625 16.4346 19.7625 16.5199C19.7625 16.6052 19.7992 16.6858 19.8624 16.7386L21.586 18.1798L19.8624 19.6207C19.7992 19.6736 19.7625 19.7542 19.7625 19.8395C19.7625 19.9248 19.7992 20.0054 19.8624 20.0582L21.586 21.4994L19.9336 22.8809H3.3376L1.6852 21.4994L3.40882 20.0582C3.472 20.0054 3.50877 19.9248 3.50877 19.8395C3.50877 19.7542 3.472 19.6736 3.40882 19.6207L1.6852 18.1798L3.40882 16.7386C3.472 16.6858 3.50877 16.6052 3.50877 16.5199C3.50877 16.4346 3.472 16.354 3.40882 16.3012L1.6852 14.86L3.40882 13.419C3.472 13.3662 3.50877 13.2856 3.50877 13.2003C3.50877 13.115 3.472 13.0344 3.40882 12.9816L1.6852 11.5406L3.3376 10.1592H19.9336L21.586 11.5406L19.8624 12.9816C19.7992 13.0344 19.7625 13.115 19.7625 13.2003C19.7625 13.2856 19.7992 13.3662 19.8624 13.419L21.586 14.86L19.8624 16.3012ZM23.8069 12.3165L21.4014 13.9979L20.4477 13.2006L22.1713 11.7597C22.2345 11.7068 22.2712 11.6262 22.2712 11.5409C22.2712 11.4556 22.2345 11.375 22.1713 11.3222L20.1861 9.66253C20.14 9.62401 20.0828 9.60283 20.0243 9.60283H5.90464L17.2268 1.68892L19.3217 1.87822L18.6272 4.08871C18.6018 4.1696 18.6127 4.25847 18.657 4.32973C18.701 4.401 18.7735 4.44667 18.8535 4.4541L21.0389 4.65138L20.3443 6.86159C20.319 6.94248 20.3298 7.03135 20.3741 7.10261C20.4181 7.17388 20.4907 7.21955 20.5707 7.22698L22.756 7.42453L22.0615 9.63502C22.0361 9.71591 22.047 9.80478 22.0913 9.87604C22.1353 9.9473 22.2078 9.99298 22.2878 10.0004L24.4732 10.198L23.8069 12.3165ZM13.7881 16.9868C13.0011 16.9125 12.3048 17.5335 12.2354 18.3694C12.2017 18.7744 12.3185 19.169 12.5645 19.4807C12.8102 19.7924 13.1554 19.9836 13.5366 20.0191C13.5796 20.0233 13.6223 20.0252 13.6648 20.0252C14.0004 20.0252 14.3223 19.9014 14.5826 19.6697C14.8759 19.4086 15.0559 19.0418 15.0893 18.6368C15.123 18.2318 15.0062 17.8373 14.7602 17.5255C14.5147 17.2138 14.1693 17.0223 13.7881 16.9868ZM14.5678 18.5876C14.5466 18.8446 14.4324 19.0773 14.2462 19.243C14.0602 19.4086 13.8243 19.4873 13.5827 19.4647C13.3409 19.4422 13.1218 19.3208 12.9659 19.123C12.81 18.9252 12.7357 18.6748 12.7572 18.4181C12.7989 17.9162 13.1964 17.5371 13.662 17.5371C13.6886 17.5371 13.7153 17.5382 13.7425 17.5409C13.9844 17.5635 14.2034 17.6848 14.3593 17.8827C14.515 18.0802 14.5893 18.3306 14.5678 18.5876ZM13.6449 13.9591L10.0549 19.3998C10.0039 19.4771 9.92288 19.5184 9.84027 19.5184C9.78822 19.5184 9.73591 19.5021 9.69008 19.468C9.57173 19.3797 9.54299 19.2064 9.62611 19.0806L13.2163 13.64C13.2994 13.5142 13.4628 13.4837 13.5809 13.572C13.6992 13.6598 13.728 13.8334 13.6449 13.9591ZM11.0356 14.6701C11.105 13.834 10.5211 13.0941 9.73436 13.0204C8.94765 12.9469 8.25105 13.5671 8.18165 14.4029C8.11225 15.2391 8.6962 15.979 9.48291 16.0527C9.52538 16.0568 9.56759 16.0588 9.60954 16.0588C10.3432 16.0588 10.9698 15.4609 11.0356 14.6701ZM8.70319 14.4519C8.74488 13.9501 9.14238 13.5709 9.60799 13.5709C9.63466 13.5709 9.66133 13.572 9.68852 13.5748C10.1878 13.6215 10.5581 14.0909 10.5141 14.6214C10.4701 15.1519 10.0296 15.5453 9.52901 15.4986C9.02974 15.4518 8.65917 14.9821 8.70319 14.4519Z" fill="currentColor"/>
<path d="M25.0452 9.79735C25.0012 9.72609 24.9287 9.68042 24.8486 9.67299L22.6633 9.47544L23.3578 7.26495C23.3832 7.18406 23.3723 7.09518 23.328 7.02392C23.284 6.95266 23.2115 6.90699 23.1315 6.89956L20.9462 6.70201L21.6407 4.49179C21.6661 4.4109 21.6552 4.32203 21.6109 4.25077C21.5669 4.17951 21.4944 4.13383 21.4144 4.12641L19.229 3.92913L19.9235 1.71864C19.9489 1.63775 19.938 1.54888 19.8938 1.47762C19.8497 1.40635 19.7772 1.36068 19.6972 1.35325L17.1804 1.12598C17.1216 1.12076 17.0634 1.13644 17.0144 1.17083L4.95194 9.60283H3.24697C3.18819 9.60283 3.13122 9.62374 3.08512 9.66253L1.09996 11.3222C1.03677 11.375 1 11.4556 1 11.5409C1 11.6262 1.03677 11.7068 1.09996 11.7597L2.82357 13.2006L1.09996 14.6415C1.03677 14.694 1 14.7747 1 14.86C1 14.9453 1.03677 15.0259 1.09996 15.0787L2.82357 16.5199L1.09996 17.9611C1.03677 18.0139 1 18.0945 1 18.1798C1 18.2651 1.03677 18.3457 1.09996 18.3986L2.82357 19.8395L1.09996 21.2807C1.03677 21.3335 1 21.4141 1 21.4994C1 21.5847 1.03677 21.6653 1.09996 21.7181L3.08512 23.3778C3.13122 23.4163 3.18819 23.4375 3.24697 23.4375H20.0243C20.0831 23.4375 20.14 23.4166 20.1861 23.3778L22.1713 21.7181C22.2345 21.6653 22.2712 21.5847 22.2712 21.4994C22.2712 21.4141 22.2345 21.3335 22.1713 21.2807L20.4477 19.8395L22.1713 18.3986C22.2345 18.3457 22.2712 18.2651 22.2712 18.1798C22.2712 18.0945 22.2345 18.0139 22.1713 17.9611L20.4477 16.5199L22.1713 15.0787C22.2345 15.0259 22.2712 14.9453 22.2712 14.86C22.2712 14.7747 22.2345 14.694 22.1713 14.6412L21.8354 14.3603L24.1704 12.7282C24.2194 12.6938 24.2564 12.6431 24.2748 12.5837L25.0747 10.0381C25.1001 9.95748 25.0892 9.86861 25.0452 9.79735ZM19.8624 16.3012C19.7992 16.354 19.7625 16.4346 19.7625 16.5199C19.7625 16.6052 19.7992 16.6858 19.8624 16.7386L21.586 18.1798L19.8624 19.6207C19.7992 19.6736 19.7625 19.7542 19.7625 19.8395C19.7625 19.9248 19.7992 20.0054 19.8624 20.0582L21.586 21.4994L19.9336 22.8809H3.3376L1.6852 21.4994L3.40882 20.0582C3.472 20.0054 3.50877 19.9248 3.50877 19.8395C3.50877 19.7542 3.472 19.6736 3.40882 19.6207L1.6852 18.1798L3.40882 16.7386C3.472 16.6858 3.50877 16.6052 3.50877 16.5199C3.50877 16.4346 3.472 16.354 3.40882 16.3012L1.6852 14.86L3.40882 13.419C3.472 13.3662 3.50877 13.2856 3.50877 13.2003C3.50877 13.115 3.472 13.0344 3.40882 12.9816L1.6852 11.5406L3.3376 10.1592H19.9336L21.586 11.5406L19.8624 12.9816C19.7992 13.0344 19.7625 13.115 19.7625 13.2003C19.7625 13.2856 19.7992 13.3662 19.8624 13.419L21.586 14.86L19.8624 16.3012ZM23.8069 12.3165L21.4014 13.9979L20.4477 13.2006L22.1713 11.7597C22.2345 11.7068 22.2712 11.6262 22.2712 11.5409C22.2712 11.4556 22.2345 11.375 22.1713 11.3222L20.1861 9.66253C20.14 9.62401 20.0828 9.60283 20.0243 9.60283H5.90464L17.2268 1.68892L19.3217 1.87822L18.6272 4.08871C18.6018 4.1696 18.6127 4.25847 18.657 4.32973C18.701 4.401 18.7735 4.44667 18.8535 4.4541L21.0389 4.65138L20.3443 6.86159C20.319 6.94248 20.3298 7.03135 20.3741 7.10261C20.4181 7.17388 20.4907 7.21955 20.5707 7.22698L22.756 7.42453L22.0615 9.63502C22.0361 9.71591 22.047 9.80478 22.0913 9.87604C22.1353 9.9473 22.2078 9.99298 22.2878 10.0004L24.4732 10.198L23.8069 12.3165ZM13.7881 16.9868C13.0011 16.9125 12.3048 17.5335 12.2354 18.3694C12.2017 18.7744 12.3185 19.169 12.5645 19.4807C12.8102 19.7924 13.1554 19.9836 13.5366 20.0191C13.5796 20.0233 13.6223 20.0252 13.6648 20.0252C14.0004 20.0252 14.3223 19.9014 14.5826 19.6697C14.8759 19.4086 15.0559 19.0418 15.0893 18.6368C15.123 18.2318 15.0062 17.8373 14.7602 17.5255C14.5147 17.2138 14.1693 17.0223 13.7881 16.9868ZM14.5678 18.5876C14.5466 18.8446 14.4324 19.0773 14.2462 19.243C14.0602 19.4086 13.8243 19.4873 13.5827 19.4647C13.3409 19.4422 13.1218 19.3208 12.9659 19.123C12.81 18.9252 12.7357 18.6748 12.7572 18.4181C12.7989 17.9162 13.1964 17.5371 13.662 17.5371C13.6886 17.5371 13.7153 17.5382 13.7425 17.5409C13.9844 17.5635 14.2034 17.6848 14.3593 17.8827C14.515 18.0802 14.5893 18.3306 14.5678 18.5876ZM13.6449 13.9591L10.0549 19.3998C10.0039 19.4771 9.92288 19.5184 9.84027 19.5184C9.78822 19.5184 9.73591 19.5021 9.69008 19.468C9.57173 19.3797 9.54299 19.2064 9.62611 19.0806L13.2163 13.64C13.2994 13.5142 13.4628 13.4837 13.5809 13.572C13.6992 13.6598 13.728 13.8334 13.6449 13.9591ZM11.0356 14.6701C11.105 13.834 10.5211 13.0941 9.73436 13.0204C8.94765 12.9469 8.25105 13.5671 8.18165 14.4029C8.11225 15.2391 8.6962 15.979 9.48291 16.0527C9.52538 16.0568 9.56759 16.0588 9.60954 16.0588C10.3432 16.0588 10.9698 15.4609 11.0356 14.6701ZM8.70319 14.4519C8.74488 13.9501 9.14238 13.5709 9.60799 13.5709C9.63466 13.5709 9.66133 13.572 9.68852 13.5748C10.1878 13.6215 10.5581 14.0909 10.5141 14.6214C10.4701 15.1519 10.0296 15.5453 9.52901 15.4986C9.02974 15.4518 8.65917 14.9821 8.70319 14.4519Z" stroke="black" stroke-width="0.4" mask="url(#path-1-outside-1_289_933)"/>
</svg>
