<svg width="22" height="24" viewBox="0 0 22 24" fill="currentColor" xmlns="http://www.w3.org/2000/svg">
<path fill-rule="evenodd" clip-rule="evenodd" d="M12.2329 2.45488C11.8955 2.12911 11.4559 1.94861 11 1.94861C10.5441 1.94861 10.1045 2.12911 9.76708 2.45488L2.43375 9.53848C2.24466 9.72103 2.09358 9.94357 1.99018 10.1918C1.88678 10.44 1.83336 10.7085 1.83333 10.9799V19.4271C1.83333 19.9437 2.02649 20.4392 2.3703 20.8045C2.71412 21.1698 3.18044 21.375 3.66667 21.375H7.33333V15.5312C7.33333 14.498 7.71964 13.5071 8.40728 12.7765C9.09491 12.0459 10.0275 11.6354 11 11.6354C11.9725 11.6354 12.9051 12.0459 13.5927 12.7765C14.2804 13.5071 14.6667 14.498 14.6667 15.5312V21.375H18.3333C18.8196 21.375 19.2859 21.1698 19.6297 20.8045C19.9735 20.4392 20.1667 19.9437 20.1667 19.4271V10.9799C20.1666 10.7085 20.1132 10.44 20.0098 10.1918C19.9064 9.94357 19.7553 9.72103 19.5662 9.53848L12.2329 2.45488ZM8.53325 1.01342C9.20821 0.361333 10.0877 0 11 0C11.9123 0 12.7918 0.361333 13.4668 1.01342L20.8001 8.09702C21.1781 8.46222 21.4801 8.90732 21.6867 9.40378C21.8934 9.90024 22.0001 10.4371 22 10.9799V19.4271C22 20.4603 21.6137 21.4512 20.9261 22.1819C20.2384 22.9125 19.3058 23.3229 18.3333 23.3229H14.6667C14.1804 23.3229 13.7141 23.1177 13.3703 22.7524C13.0265 22.3871 12.8333 21.8916 12.8333 21.375V15.5312C12.8333 15.0146 12.6402 14.5192 12.2964 14.1539C11.9525 13.7886 11.4862 13.5833 11 13.5833C10.5138 13.5833 10.0475 13.7886 9.70364 14.1539C9.35982 14.5192 9.16667 15.0146 9.16667 15.5312V21.375C9.16667 21.8916 8.97351 22.3871 8.6297 22.7524C8.28588 23.1177 7.81956 23.3229 7.33333 23.3229H3.66667C2.69421 23.3229 1.76158 22.9125 1.07394 22.1819C0.386308 21.4512 0 20.4603 0 19.4271V10.9799C4.96292e-05 10.437 0.106898 9.90012 0.313693 9.40366C0.520487 8.90719 0.822661 8.46213 1.20083 8.09702L8.53417 1.0144L8.53325 1.01342Z" fill="currentColor"/>
</svg>
